<?xml version="1.0" encoding="UTF-8"?>
<!DOCTYPE svg PUBLIC "-//W3C//DTD SVG 1.1//EN" "http://www.w3.org/Graphics/SVG/1.1/DTD/svg11.dtd">
<!-- Creator: CorelDRAW 2018 (64-Bit) -->
<svg xmlns="http://www.w3.org/2000/svg" xml:space="preserve" width="645.922mm" height="740.833mm" version="1.1" style="shape-rendering:geometricPrecision; text-rendering:geometricPrecision; image-rendering:optimizeQuality; fill-rule:evenodd; clip-rule:evenodd"
viewBox="0 0 64592.18 74083.32"
 xmlns:xlink="http://www.w3.org/1999/xlink">
 <defs>
  <style type="text/css">
   <![CDATA[
    .str8 {stroke:#8C8C8C;stroke-width:174.59;stroke-miterlimit:22.9256;stroke-opacity:0.400000}
    .str7 {stroke:#8C8C8C;stroke-width:174.59;stroke-linejoin:round;stroke-miterlimit:22.9256;stroke-opacity:0.400000}
    .str4 {stroke:#8C8C8C;stroke-width:182.82;stroke-miterlimit:22.9256;stroke-opacity:0.501961}
    .str6 {stroke:#8C8C8C;stroke-width:157.73;stroke-miterlimit:22.9256;stroke-opacity:0.501961}
    .str0 {stroke:#8C8C8C;stroke-width:260.9;stroke-miterlimit:22.9256;stroke-opacity:0.501961}
    .str3 {stroke:#8C8C8C;stroke-width:225.09;stroke-miterlimit:22.9256;stroke-opacity:0.501961}
    .str5 {stroke:#8C8C8C;stroke-width:182.82;stroke-linejoin:round;stroke-miterlimit:22.9256;stroke-opacity:0.501961}
    .str11 {stroke:#010101;stroke-width:14.11;stroke-linejoin:round;stroke-miterlimit:22.9256;stroke-opacity:0.501961}
    .str10 {stroke:#010101;stroke-width:14.11;stroke-linejoin:round;stroke-miterlimit:10;stroke-opacity:0.501961}
    .str2 {stroke:#8C8C8C;stroke-width:260.9;stroke-linejoin:round;stroke-miterlimit:22.9256;stroke-opacity:0.501961}
    .str1 {stroke:#8C8C8C;stroke-width:260.91;stroke-linejoin:round;stroke-miterlimit:22.9256;stroke-opacity:0.501961}
    .str9 {stroke:#939597;stroke-width:77.68;stroke-linecap:round;stroke-linejoin:round;stroke-miterlimit:10;stroke-opacity:0.501961}
    .str17 {stroke:#939597;stroke-width:103.4;stroke-miterlimit:10}
    .str19 {stroke:#010101;stroke-width:14.11;stroke-linejoin:round;stroke-miterlimit:22.9256}
    .str16 {stroke:#939597;stroke-width:68.93;stroke-linejoin:round;stroke-miterlimit:10}
    .str12 {stroke:#B3B5B6;stroke-width:103.4;stroke-linecap:round;stroke-miterlimit:10}
    .str18 {stroke:#939597;stroke-width:84.95;stroke-linecap:round;stroke-linejoin:round;stroke-miterlimit:10}
    .str15 {stroke:#939597;stroke-width:105.52;stroke-linecap:round;stroke-linejoin:round;stroke-miterlimit:10}
    .str13 {stroke:#2690CA;stroke-width:103.4;stroke-linecap:round;stroke-linejoin:round;stroke-miterlimit:10}
    .str14 {stroke:#939597;stroke-width:103.4;stroke-linecap:round;stroke-linejoin:round;stroke-miterlimit:10}
    .fil28 {fill:none;fill-rule:nonzero}
    .fil26 {fill:none;fill-rule:nonzero}
    .fil4 {fill:#0C7CC1;fill-rule:nonzero}
    .fil35 {fill:#15156B;fill-rule:nonzero}
    .fil34 {fill:#161646;fill-rule:nonzero}
    .fil36 {fill:#1F1D82;fill-rule:nonzero}
    .fil3 {fill:#2F2F2F;fill-rule:nonzero}
    .fil9 {fill:#341D7C;fill-rule:nonzero}
    .fil38 {fill:#383AA8;fill-rule:nonzero}
    .fil5 {fill:#4F2DA3;fill-rule:nonzero}
    .fil12 {fill:#50189A;fill-rule:nonzero}
    .fil11 {fill:#5921AF;fill-rule:nonzero}
    .fil33 {fill:#5D5D5D;fill-rule:nonzero}
    .fil40 {fill:#5D6BE4;fill-rule:nonzero}
    .fil31 {fill:#606B83;fill-rule:nonzero}
    .fil13 {fill:#723ADD;fill-rule:nonzero}
    .fil7 {fill:#F4A569;fill-rule:nonzero}
    .fil6 {fill:#F9AF72;fill-rule:nonzero}
    .fil37 {fill:#FFBF87;fill-rule:nonzero}
    .fil8 {fill:#FFC193;fill-rule:nonzero}
    .fil10 {fill:#FFD4B8;fill-rule:nonzero}
    .fil32 {fill:white;fill-rule:nonzero}
    .fil14 {fill:#565656;fill-rule:nonzero;fill-opacity:0.101961}
    .fil2 {fill:#FDFDFD;fill-rule:nonzero;fill-opacity:0.200000}
    .fil15 {fill:#28AEF6;fill-rule:nonzero;fill-opacity:0.400000}
    .fil21 {fill:#606B83;fill-rule:nonzero;fill-opacity:0.400000}
    .fil19 {fill:#DFDFDF;fill-rule:nonzero;fill-opacity:0.400000}
    .fil22 {fill:white;fill-rule:nonzero;fill-opacity:0.400000}
    .fil30 {fill:#606B83;fill-opacity:0.501961}
    .fil24 {fill:#0C7CC1;fill-rule:nonzero;fill-opacity:0.501961}
    .fil39 {fill:#4249BA;fill-rule:nonzero;fill-opacity:0.501961}
    .fil23 {fill:#546075;fill-rule:nonzero;fill-opacity:0.501961}
    .fil29 {fill:#5D5D5D;fill-rule:nonzero;fill-opacity:0.501961}
    .fil20 {fill:#606B83;fill-rule:nonzero;fill-opacity:0.501961}
    .fil25 {fill:#939597;fill-rule:nonzero;fill-opacity:0.501961}
    .fil17 {fill:#DFDFDF;fill-rule:nonzero;fill-opacity:0.501961}
    .fil27 {fill:#FDFDFD;fill-rule:nonzero;fill-opacity:0.501961}
    .fil18 {fill:white;fill-rule:nonzero;fill-opacity:0.501961}
    .fil16 {fill:#F9FBFD;fill-rule:nonzero;fill-opacity:0.650980}
    .fil0 {fill:url(#id0);fill-rule:nonzero}
    .fil1 {fill:url(#id1);fill-rule:nonzero}
   ]]>
  </style>
  <linearGradient id="id0" gradientUnits="userSpaceOnUse" x1="4618.83" y1="-4851.2" x2="39494.52" y2="41596.84">
   <stop offset="0" style="stop-opacity:1; stop-color:#5BCAE8"/>
   <stop offset="1" style="stop-opacity:1; stop-color:#DBF4F4"/>
  </linearGradient>
  <linearGradient id="id1" gradientUnits="userSpaceOnUse" xlink:href="#id0" x1="-28874.81" y1="11840.99" x2="55796.91" y2="60170.38">
  </linearGradient>
 </defs>
 <g id="Layer_x0020_1">
  <metadata id="CorelCorpID_0Corel-Layer"/>
  <g id="_2263219496208">
   <polygon class="fil0" points="64590.07,0 64590.07,74083.32 7558.44,74083.32 7558.44,0 "/>
   <polygon class="fil1" points="7558.44,55076.1 64590.07,23742.62 64590.07,72435.42 7558.44,74083.32 "/>
   <g>
    <path class="fil2" d="M57251.96 14251.59c580.8,335.2 580.8,878.8 0,1213.83l-8525.91 4922.68c-580.44,335.26 -1521.69,335.26 -2102.61,0l-1397.4 -807.02c-580.81,-335.26 -580.81,-878.63 0,-1213.95l8526.02 -4922.38c580.32,-335.27 1521.57,-335.27 2102.36,0l1397.54 806.84z"/>
    <path class="fil2" d="M22555.87 65444.61c580.79,335.26 580.79,878.88 0,1213.78l-8525.92 4922.74c-580.44,335.26 -1521.68,335.26 -2102.6,0l-1397.41 -807.02c-580.8,-335.26 -580.8,-878.63 0,-1213.89l8526.03 -4922.51c580.31,-335.13 1521.56,-335.13 2102.36,0l1397.54 806.9z"/>
    <path class="fil2" d="M33464.11 65444.61c580.8,335.26 580.8,878.88 0,1213.78l-8525.92 4922.74c-580.44,335.26 -1521.69,335.26 -2102.6,0l-1397.41 -807.02c-580.8,-335.26 -580.8,-878.63 0,-1213.89l8526.03 -4922.51c580.31,-335.13 1521.56,-335.13 2102.36,0l1397.54 806.9z"/>
    <path class="fil2" d="M62196.17 27855.89c580.8,335.24 580.8,878.86 0,1213.76l-8525.91 4922.74c-580.44,335.26 -1521.69,335.26 -2102.61,0l-1397.41 -807.02c-580.79,-335.26 -580.79,-878.63 0,-1213.89l8526.04 -4922.51c580.32,-335.13 1521.56,-335.13 2102.36,0l1397.53 806.92z"/>
    <path class="fil2" d="M63796.67 36583.67c580.8,335.26 580.8,878.93 0,1213.82l-8525.92 4922.74c-580.44,335.15 -1521.68,335.15 -2102.6,0l-1397.41 -807.02c-580.81,-335.37 -580.81,-878.76 0,-1213.89l8526.03 -4922.55c580.31,-335.15 1521.56,-335.15 2102.35,0l1397.55 806.9z"/>
    <path class="fil2" d="M47292.16 3769.83c580.81,335.2 580.81,878.87 0,1213.89l-8526.03 4922.63c-580.31,335.31 -1521.56,335.31 -2102.48,0l-1397.42 -806.97c-580.8,-335.32 -580.8,-878.7 0,-1213.96l8526.04 -4922.38c580.31,-335.25 1521.56,-335.25 2102.36,0l1397.53 806.79z"/>
    <path class="fil2" d="M60741.9 5099.05c580.8,335.2 580.8,878.88 0,1213.89l-8526.03 4922.63c-580.31,335.31 -1521.57,335.31 -2102.48,0l-1397.43 -806.97c-580.79,-335.31 -580.79,-878.69 0,-1213.95l8526.04 -4922.39c580.32,-335.24 1521.57,-335.24 2102.36,0l1397.54 806.79z"/>
    <path class="fil2" d="M21768.03 3945.68c542.54,313.07 542.54,820.88 0,1133.76l-7963.47 4597.86c-542.05,313.19 -1421.16,313.19 -1963.7,0l-1305.28 -753.77c-542.41,-313.18 -542.41,-820.69 0,-1133.82l7963.47 -4597.62c542.04,-313.12 1421.17,-313.12 1963.7,0l1305.28 753.59z"/>
   </g>
   <g>
    <g>
     <path class="fil3" d="M46461.67 53745.74c0,0 -572.43,999.74 -1250.36,1434.22 -678.34,433.93 -2139.8,1384.46 -1883.78,2187.22 255.88,802.89 1032.09,1065.12 1800.97,344.21 768.34,-720.78 1574.26,-1540.68 1981.52,-1835.12 406.83,-294.86 534.98,-466.69 444.43,-1032.36 -90.54,-565.68 -82.94,-1295.02 -82.94,-1295.02 0,0 -948.74,96.34 -1009.84,196.85z"/>
     <path class="fil3" d="M52537.27 55723.24c0,0 -396.19,1283.41 -1064.44,2010.13 -668.38,726.44 -1938.8,1999.34 -1295.85,2413.79 642.26,415.27 2059.07,612.12 3043.61,-1037.21 984.39,-1649.6 1004.57,-2332.23 803.71,-2837.77 -200.99,-505.11 -140.59,-1171.71 -140.59,-1171.71l-1346.44 622.77z"/>
     <path class="fil4" d="M49935.35 41193.94c0,0 1748.02,7374.2 2079.78,9733.11 331.64,2359.87 -45.46,5457.12 994.37,5342.37 1039.83,-114.73 1657.61,-3081.06 1657.61,-5538.67 0,-2458.03 -633,-7865.37 -633,-10061.29 0,-2196.07 -4098.76,524.48 -4098.76,524.48z"/>
     <path class="fil4" d="M46499.7 39417.98c0,0 -391.63,4561.73 -693.42,7117.64 -300.94,2556.45 -96.07,7710.12 723.41,7882.23 562.35,117.92 1024.76,-360.8 1024.76,-835.8 0,-475.26 1145.04,-5768.28 1597.08,-8520.89 452.32,-2753.16 1257.97,-4621.46 1257.97,-4621.46l-3909.8 -1021.72z"/>
     <path class="fil5" d="M47373.5 35393.03l-984.4 4533.81c0,0 2009.3,2140.76 4882.59,1791.29 2873.29,-349.47 3154.34,-808.42 3154.34,-808.42 0,0 -180.83,-2031.96 0,-3495.79 181.23,-1463.79 -6904.62,-2702 -7052.53,-2020.89z"/>
     <path class="fil6" d="M42890.83 26798.11c0,0 -241.5,-721 74.93,-1065.13 316.7,-344.3 248.68,-1444.94 208.59,-1767.11 -40.21,-322.17 -85,-528.97 -230.58,-528.97 -146.11,0 -231.4,277.85 -231.4,605.55 0,327.83 -60.56,546.19 -60.56,546.19 0,0 -153.02,-1305.54 -341.59,-2018.22 -188.14,-712.76 -356.1,-778.36 -496.96,-778.36 -140.6,0 -65.12,426.06 0,813.95 65.52,387.77 100.36,709.93 100.36,709.93 0,0 -458.4,-1446.12 -691.88,-1646.91 -233.49,-200.72 -406.84,-94.27 -263.77,364.61 143.5,458.81 357.49,1249.46 357.49,1249.46 0,0 -396.61,-890.17 -587.23,-1174.34 -190.92,-284.07 -512.45,-393.43 -512.45,-152.95 0,240.46 447.06,961.58 547.7,1190.86 100.36,229.33 110.45,290.23 110.45,290.23 0,0 -708.06,-1224.25 -959.65,-1076.89 -250.91,147.72 128.13,570.86 301.5,996.98 173.35,425.92 128.14,1532.1 557.65,2146.44 429.51,614.61 669.9,713.03 746.76,1805.54 76.87,1092.29 880.87,655.39 880.87,655.39l489.77 -1166.25z"/>
     <path class="fil6" d="M47373.5 35393.03c0,0 -225.74,-5.67 -120.41,229.34 105.62,234.73 426.75,295 763.77,398.68 336.48,103.96 482.04,245.78 482.04,344.21 0,98.15 -391.22,152.89 -1019.65,120.4 -627.88,-32.89 -1516.62,-114.87 -1516.62,119.58 0,235.01 607.56,349.74 1119.74,382.78 512.45,32.91 768.33,147.08 422.32,174.59 -347.12,27.38 -1909.08,-70.91 -1909.08,245.94 0,316.7 682.91,294.86 1290.88,294.86 607.56,0 939.19,-32.63 939.19,-32.63 0,0 -577.84,119.98 -1054.76,141.97 -477.34,21.57 -944.45,163.54 -944.45,360.38 0,196.73 688.43,158.44 1220.79,103.96 532.63,-54.88 763.21,-71.06 763.21,-71.06 0,0 -1376.17,273.04 -1421.37,464.49 -45.2,190.91 145.56,283.81 909.06,212.75 763.49,-70.92 1687.75,-139.21 2177.68,-467.11 489.91,-327.49 1182.9,-114.73 1182.9,-114.73l301.36 -1425.38 -1808.57 -1622.36c0,0 -1638.68,67.03 -1778.03,139.34z"/>
     <path class="fil5" d="M55887.48 35818.4c0,468.62 -29.58,889.55 -101.87,1255.32 0,1.66 -1.53,4.98 -1.53,6.5 -175.7,903.67 -600.92,1479.7 -1435.88,1653.34 -66.63,14.24 -135.9,27.38 -208.33,35.39 -1341.74,163.4 -3917.55,-263.48 -3917.55,-263.48l27.93 -165.2 17.7 -104.51 256.98 -1516.88c-35.53,-1.39 -87.23,-6.23 -157.86,-14.24 -412.23,-45.07 -542.04,-186.34 -1144.21,-688.43 -603.69,-502.5 -1849.36,-623.05 -1849.36,-623.05 0,0 120.82,-929.23 120.82,-2545.79 0,-1616.44 -804.69,-4303.45 -804.69,-4303.45 0,0 -2911.99,3450.92 -4057.58,2971.1 -1145.3,-481.49 -1427.17,-4675.86 -1427.17,-4675.86 0,0 106.16,46.65 274.54,77.2 144.45,24.06 333.57,35.32 541.47,-3.24 500.56,-93.1 736.54,-194.23 834.14,-247.31 41.19,-22.4 57.5,-35.32 57.5,-35.32 0,0 221.32,1256.86 724.65,1256.86 502.22,0 1647.26,-2468.73 2590.73,-2752.82 348.23,-104.29 891.65,-290.57 1439.35,-483.14 469.31,-163.81 939.87,-333.85 1292.8,-460.74 93.18,-33.59 177.09,-65.74 252.57,-91.45 63.59,-24.06 119.43,-44.86 165.19,-61.04 104.93,-38.36 165.2,-60.82 165.2,-60.82 0,0 391.49,-1046.6 1857.24,-226.44 372.13,207.01 813.39,536.02 1335.79,1032.16 1.39,1.53 4.56,4.7 5.68,6.43 19.35,19.15 39.95,38.5 60.54,59.31 12.04,12.85 22.26,22.54 29.59,28.96 5.94,3.11 10.5,9.6 16.31,14.37 1.53,1.66 1.53,1.66 1.53,1.66 2671.88,2611.74 2118.08,2568.2 2631.78,4861.87 512.17,2294.06 406,4342.08 406,6062.74z"/>
     <path class="fil7" d="M49372.84 24075.35c0,0 100.51,852.17 -291.26,1168.81 0,0 -220.78,557.1 954.11,928.48 1175.46,371.31 2732.85,-862.96 2813.17,-1278.16 0,0 -894.13,-764.66 -703.36,-1736.89 190.77,-972.24 -1396.08,-196.64 -1396.08,-196.64 0,0 -1376.58,699.2 -1376.58,1114.4z"/>
     <path class="fil8" d="M53803.4 22140.91c-80.05,449.42 -1235.58,722.36 -1235.58,722.36 0,0 -84.33,162.16 -442.78,431.65 -171.55,128.56 -406.14,282.63 -724.78,455.98 -260.03,139.69 -577.29,293.76 -962.56,455.91 -219.79,91.52 -414.72,149.16 -589.03,176.54 -175.57,30.48 -329.15,28.89 -465.04,1.65 -166.71,-30.61 -305.37,-98.08 -423.57,-194.35 -488.4,-396.47 -588.89,-1266.55 -681.79,-1890.77 -113.77,-770.61 48.8,-2311.42 132.71,-3012.97 14.79,-118.75 26.68,-213.51 35.53,-276 7.19,-56.34 11.61,-86.74 11.61,-86.74 367.85,-210.34 996.7,1.51 1678.77,349.87 1102.03,560.35 2346.6,1471.97 2861.97,1513.72 414.57,32.08 636.02,256.78 743.84,529.59 107.84,274.62 100.24,598.93 60.7,823.56z"/>
     <path class="fil9" d="M55785.61 37073.72c-188.7,979.01 -670.05,1576.07 -1645.74,1695.23 -1341.74,163.4 -3917.55,-263.48 -3917.55,-263.48l27.93 -165.2c0,0 4853.83,1294.32 5533.83,-1260.05 0,-1.52 1.53,-4.84 1.53,-6.5z"/>
     <path class="fil10" d="M49848.67 24383.35c-175.57,30.48 -329.15,28.89 -465.04,1.65 -166.71,-30.61 -305.37,-98.08 -423.57,-194.35 -488.4,-396.47 -588.89,-1266.55 -681.79,-1890.77 -113.77,-770.61 48.8,-2311.42 132.71,-3012.97 -56.13,-60.97 -103.53,-122.01 -147.5,-186.08 73.68,-37.04 135.61,-67.52 183.03,-89.92 66.35,-32.21 104.64,-49.84 104.64,-49.84l0 361.15c0,11.27 -3.03,44.99 -8.57,99.6 -53.22,439.8 -277.57,2197.37 8.57,3245.5 171.29,634.1 311.59,1130.1 661.48,1431.88 51.55,44.99 107.55,85.15 171,120.47 128.42,75.35 282.01,131.53 465.04,163.68z"/>
     <path class="fil6" d="M53803.4 22140.91c-80.05,449.42 -1235.58,722.36 -1235.58,722.36 0,0 -84.33,162.16 -442.78,431.65 -171.55,128.56 -406.14,282.63 -724.78,455.98 -260.03,139.69 -577.29,293.76 -962.56,455.91 -1925.95,-359.62 -1321.15,-4388.59 -1321.15,-4388.59 81.29,-383.62 477.06,-532.84 1020.34,-544.18 1102.03,560.35 2346.6,1471.97 2861.97,1513.72 414.57,32.08 636.02,256.78 743.84,529.59 107.84,274.62 100.24,598.93 60.7,823.56z"/>
     <path class="fil11" d="M53877.08 20880.86c-60.55,219.94 -113.64,377.26 -134.38,436.49 -7.46,17.83 -10.5,27.45 -10.5,27.45 -692.01,-459.1 -1063.88,1036.98 -1174.61,1036.98 -111.01,0 0,-557.16 0,-557.16 0,0 -648.2,16.04 -738.32,-327.35 -90.15,-345.19 -225.62,-704.74 -2320.34,-1507.28 -416.11,-160.5 -726.17,-353.07 -956.35,-568.17 -47.54,-43.34 -91.51,-88.33 -131.6,-134.91 -56.13,-60.97 -103.53,-122.01 -147.5,-186.08 -560.84,-820.31 -256.84,-1831.66 -211.23,-2486.43 7.47,-98.01 29.73,-218.35 66.5,-350.02 180.12,-648.41 674.61,-1558.57 1026,-1324.26 76.73,52.95 145.85,157.25 203.63,330.67 376.43,1130.04 2711.68,752.84 4112.46,1884.47 453.15,364.4 642.12,930.96 689.12,1531.4 65.25,808.99 -126.76,1677.32 -272.88,2194.2z"/>
     <path class="fil12" d="M53877.08 20880.86c-60.55,219.94 -113.64,377.26 -134.38,436.49 -7.46,17.83 -10.5,27.45 -10.5,27.45 -692.01,-459.1 -1063.88,1036.98 -1174.61,1036.98 -111.01,0 0,-557.16 0,-557.16 0,0 -648.2,16.04 -738.32,-327.35 -90.15,-345.19 -225.62,-704.74 -2320.34,-1507.28 -416.11,-160.5 -726.17,-353.07 -956.35,-568.17 -47.54,-43.34 -91.51,-88.33 -131.6,-134.91 -56.13,-60.97 -103.53,-122.01 -147.5,-186.08 -560.84,-820.31 -256.84,-1831.66 -211.23,-2486.43 7.47,-98.01 29.73,-218.35 66.5,-350.02 0,0 961.03,2293.79 2161.21,2378.81 1198.41,83.49 1363.87,645.23 1456.64,1287.49 93.17,641.98 1402.28,-781.74 1604.81,100.98 88.33,383.68 281.87,653.31 535.67,849.2z"/>
     <path class="fil13" d="M54149.96 18686.66c-432.27,-1552.21 -1887.51,-1921.44 -3471.73,-2293.79 -1598.45,-374.13 -1533.48,-1449.5 -1533.48,-1449.5 0,-1.53 0,-1.53 0,-3.25 76.73,52.95 145.85,157.25 203.63,330.67 376.43,1130.04 2711.68,752.84 4112.46,1884.47 453.15,364.4 642.12,930.96 689.12,1531.4z"/>
     <path class="fil9" d="M54429.48 27509.06c0,0 -1671.44,563.25 -1253.27,3612.53 418.18,3049.13 2287.99,5260.12 -2647.69,5582.5l-30.13 174.45c0,0 3095.85,-6.76 3538.5,-1624.85 442.92,-1618.09 -2400.66,-5523.89 392.59,-7744.63z"/>
     <polygon class="fil14" points="44450.9,57909.92 58906.33,64364.99 53888.4,56559.39 51398.1,59421.48 45339.61,56782.49 "/>
    </g>
    <g>
     <path class="fil15" d="M41077.75 60051.78c0,832.49 -584.62,1169.73 -1305.25,753.55l-22127.02 -12774.55c-720.98,-416.07 -1305.36,-1428.67 -1305.36,-2261.16l0 -34925.58c0,-832.48 584.38,-1169.73 1305.62,-753.6l22126.76 12774.61c721,416.25 1305.49,1428.67 1305.49,2261.16l-0.24 34925.57z"/>
    </g>
    <g>
     <path class="fil16" d="M46361.15 31707.06l0 33799.84c0,832.73 -584.24,1169.85 -1305.36,753.55l-22127.15 -12774.81c-48.14,-28.29 -95.9,-59.21 -144.04,-91.89l-8640.89 -4989.4c-721.12,-416.32 -1305.36,-1428.3 -1305.36,-2261.16l0 -33799.7c0,-832.62 584.24,-1169.99 1305.36,-753.62l1517.53 876.54 20609.61 11898.45c47.76,28.16 96.02,59.27 144.05,93.15l8640.89 4988.02c721.12,416.24 1305.36,1428.36 1305.36,2261.03z"/>
    </g>
    <g>
     <polygon class="fil17 str0" points="25121.93,13815 28529.2,15782.16 28529.2,13363.44 25122.06,11396.28 "/>
     <polygon class="fil17 str1" points="28529.2,13363.44 26825.38,13685.92 25122.06,11396.28 "/>
     <g>
      <polygon class="fil18 str2" points="28529.2,15782.16 27131.2,14109.45 "/>
      <polygon class="fil18 str2" points="25121.93,13815 26496.68,13732.42 "/>
     </g>
     <polygon class="fil18 str3" points="25122.06,11396.28 24223.21,10877.48 "/>
     <polygon class="fil18 str3" points="25121.93,11713.42 23777.99,10937.37 "/>
     <polygon class="fil18 str3" points="25121.93,12017.29 24223.21,11498.29 "/>
     <polygon class="fil18 str3" points="25121.93,12361.83 23889.48,11650.01 "/>
    </g>
    <g>
     <polygon class="fil17 str4" points="28991.9,12881.08 31379.51,14259.53 31379.51,12564.71 28991.9,11186.38 "/>
     <polygon class="fil17 str5" points="31379.51,12564.71 30185.64,12790.64 28991.9,11186.38 "/>
     <g>
      <polygon class="fil18 str5" points="31379.51,14259.53 30399.95,13087.35 "/>
      <polygon class="fil18 str5" points="28991.9,12881.08 29955.24,12823.32 "/>
     </g>
     <polygon class="fil18 str6" points="28991.9,11186.38 28362.15,10822.67 "/>
     <polygon class="fil18 str6" points="28991.9,11408.49 28050.18,10864.71 "/>
     <polygon class="fil18 str6" points="28991.9,11621.35 28362.15,11257.65 "/>
     <polygon class="fil18 str6" points="28991.9,11862.94 28128.36,11364.04 "/>
    </g>
    <g>
     <polygon class="fil19 str7" points="19605.62,10105.75 22098.44,11544.8 22098.44,9775.18 19605.62,8336.27 "/>
     <polygon class="fil19 str7" points="22098.44,9775.18 20852.27,10011.05 19605.62,8336.27 "/>
     <g>
      <polygon class="fil19 str8" points="22098.44,11544.8 21075.76,10320.95 "/>
      <polygon class="fil19 str8" points="19605.62,10105.75 20611.69,10045.17 "/>
     </g>
    </g>
    <g>
     <polygon class="fil19 str7" points="22531.7,9338.91 25024.26,10777.89 25024.26,9008.4 22531.7,7569.43 "/>
     <polygon class="fil19 str7" points="25024.26,9008.4 23778.11,9244.4 22531.7,7569.43 "/>
     <g>
      <polygon class="fil19 str8" points="25024.26,10777.89 24001.6,9554.23 "/>
      <polygon class="fil19 str8" points="22531.7,9338.91 23537.65,9278.45 "/>
     </g>
    </g>
    <path class="fil20" d="M39871.67 20504.43c0,-241.21 181.75,-331.9 407.76,-207.15 -43.37,-243.98 -118.03,-492.47 -218.47,-734.87 -163.4,86.15 -411.78,-47.46 -559.59,-302.82 -147.2,-255.92 -138.65,-537.29 17.85,-635.83 -160.02,-208.41 -337.87,-397.08 -527.55,-556.71 -4.78,258.24 -174.22,370.42 -383.12,249.76 -208.79,-120.54 -378.36,-428.44 -383.39,-692.08 -189.29,-59.47 -367.15,-76 -526.91,-52.3 156.24,278.86 165.03,570.6 17.22,655.82 -147.44,85.29 -395.95,-68.19 -559.35,-342.84 -100.31,126.4 -175.1,288.79 -218.21,482.74 226,136.01 407.64,436.87 407.64,677.88 0,240.9 -181.89,331.78 -407.64,207.02 43.11,244.11 117.9,492.18 218.21,734.96 163.4,-86.49 411.91,47.26 559.35,302.92 147.81,255.36 138.9,537.49 -17.35,635.4 159.89,208.54 337.75,397.32 527.04,556.77 5.03,-258.17 174.6,-370.18 383.39,-249.44 208.9,120.55 378.34,428.19 383.12,691.96 189.68,59.52 367.41,75.98 527.55,52.17 -156.5,-278.73 -165.05,-570.73 -17.85,-655.51 147.81,-85.53 396.19,67.75 559.59,342.77 100.44,-126.95 175.1,-288.84 218.22,-482.98 -225.76,-136.01 -407.51,-436.8 -407.51,-677.64zm-1263.12 104.27l0 0c-398.98,-230.21 -722.13,-790 -722.13,-1250.37 0,-460.61 323.15,-647.21 722.24,-416.88 398.72,230.09 722.01,790.26 722.01,1250.75 0,460.3 -323.29,646.9 -722.12,416.5z"/>
    <g>
     <path class="fil20" d="M35054.17 13466.82c0,392.87 -275.91,552 -616.29,355.66 -340.14,-196.28 -615.93,-674.23 -615.93,-1066.97 0,-393.05 275.79,-552.07 615.93,-355.66 340.38,196.27 616.29,674.18 616.29,1066.97z"/>
     <path class="fil20" d="M35691.32 15903.21c-78.69,-750.79 -609.25,-1603.2 -1253.44,-1975.15 -644.07,-371.93 -1174.89,-132.16 -1253.33,527.93l2506.77 1447.22z"/>
    </g>
    <g>
     <path class="fil21" d="M39765.61 16241.05c0,872.15 -612.21,1225.71 -1367.42,789.59 -755.19,-436.02 -1367.41,-1496.56 -1367.41,-2368.44 0,-872 612.42,-1225.57 1367.41,-789.54 755.3,435.97 1367.42,1496.4 1367.42,2368.39z"/>
     <polygon class="fil22" points="37866.84,14155.8 39350.5,16001.31 37866.84,16133.89 "/>
    </g>
    <g>
     <g>
      <g>
       <path class="fil23" d="M34951.04 17529.4c0,329.82 -231.54,463.44 -517.12,298.53 -285.71,-164.85 -517,-565.71 -517,-895.59 0,-329.71 231.29,-463.44 517,-298.6 285.58,164.99 517.12,566.02 517.12,895.66z"/>
       <path class="fil23" d="M35486 19574.74c-65.87,-630.37 -511.09,-1345.84 -1052.08,-1658.14 -540.87,-312.16 -986.22,-110.92 -1052.08,443.28l2104.16 1214.86z"/>
      </g>
      <g>
       <path class="fil23" d="M32458.09 16090.24c0,329.76 -231.77,463.44 -517.24,298.59 -285.46,-164.98 -516.99,-566.02 -516.99,-895.72 0,-329.76 231.53,-463.44 516.99,-298.59 285.47,164.91 517.24,565.95 517.24,895.72z"/>
       <path class="fil23" d="M32993.06 18135.26c-65.86,-630.11 -511.34,-1345.71 -1052.21,-1657.75 -540.75,-312.36 -986.09,-111.12 -1052.07,443.08l2104.28 1214.67z"/>
      </g>
     </g>
     <g>
      <path class="fil20" d="M33704.5 17157.71c0,329.89 -231.53,463.44 -517.24,298.65 -285.46,-164.77 -516.74,-565.87 -516.74,-895.63 0,-329.78 231.28,-463.45 516.74,-298.48 285.71,164.73 517.24,565.89 517.24,895.46z"/>
      <path class="fil20" d="M34239.47 19202.93c-65.75,-630.25 -511.08,-1345.71 -1052.21,-1657.95 -540.87,-312.23 -986.09,-110.92 -1051.96,443.28l2104.17 1214.67z"/>
     </g>
    </g>
    <path class="fil24" d="M43372.71 29145.98c0,279.06 -195.84,392.37 -437.55,252.66l-4376 -2526.31c-241.47,-139.59 -437.67,-478.84 -437.67,-758.02l0 -2060.92c0.37,-279.11 196.2,-392.3 437.67,-252.78l4376 2526.51c241.71,139.51 437.55,478.78 437.68,758.01l-0.13 2060.85z"/>
    <path class="fil24" d="M11939.99 22123.88c0,278.99 -195.71,392.24 -437.42,252.66l-4376.01 -2526.51c-241.84,-139.52 -437.68,-478.72 -437.68,-757.82l0 -2061.12c0.13,-278.92 195.84,-392.24 437.68,-252.65l4376.01 2526.44c241.71,139.65 437.42,478.9 437.55,758.02l-0.13 2060.98z"/>
    <path class="fil24" d="M44505.49 39204.6c0,279.05 -195.71,392.18 -437.55,252.66l-4375.88 -2526.12c-241.71,-139.64 -437.68,-479.28 -437.68,-757.96l0 -2061.16c0.13,-278.92 195.97,-392.05 437.68,-252.65l4375.88 2526.24c241.84,139.91 437.55,479.29 437.55,758.2l0 2060.79z"/>
    <path class="fil24" d="M41543.32 44592.72c0,278.92 -195.71,392.3 -437.68,252.78l-4376 -2526.63c-241.47,-139.53 -437.42,-478.65 -437.42,-757.83l0 -2061.05c0.12,-279.04 195.95,-392.16 437.42,-252.39l4376 2526.24c241.97,139.78 437.68,478.79 437.8,758.09l-0.12 2060.79z"/>
    <g>
     <g>
      <path class="fil25" d="M26376 21383.97c0,137.88 -96.65,193.64 -216.07,124.56l-1804 -1041.39c-119.27,-68.88 -215.94,-236.25 -215.94,-374.2 0,-137.83 96.67,-193.9 215.94,-124.82l1804 1041.33c119.29,69.01 216.07,236.63 216.07,374.52z"/>
     </g>
     <g>
      <path class="fil25" d="M21336.95 20890.73c0,280.36 -196.72,393.88 -439.31,253.28l-3669.84 -2118.23c-242.85,-140.16 -439.43,-480.61 -439.43,-761.16 0,-280.5 196.58,-394.5 439.43,-253.85l3669.84 2118.18c242.35,140.34 439.31,481.22 439.31,761.78z"/>
     </g>
     <g>
      <path class="fil25" d="M21815.53 18546.57c0,309.86 -217.41,435.32 -485.54,279.93l-4055.96 -2341.11c-268.39,-154.9 -485.66,-531.17 -485.66,-841.24 0,-310.01 217.27,-436 485.66,-280.56l4055.96 2341.05c267.85,155.1 485.54,531.85 485.54,841.93z"/>
     </g>
     <g>
      <path class="fil25" d="M34381.12 26005.58c0.26,137.96 -96.66,193.7 -216.33,124.75l-1803.62 -1041.33c-119.28,-69 -216.07,-236.62 -216.07,-374.32 0,-137.83 96.79,-193.88 216.07,-124.82l1803.62 1041.34c119.67,68.88 216.59,236.62 216.33,374.38z"/>
     </g>
     <g>
      <path class="fil25" d="M38637.47 28213.33l-1014.88 -585.75 -789 -455.78 -1014.62 -585.94c-119.67,-69 -216.33,-12.82 -216.33,124.88 0,137.95 96.66,305.45 216.33,374.39l1014.62 585.75 789 455.71 1014.88 585.81c119.41,68.88 216.2,13.13 216.2,-124.75 0,-137.89 -96.79,-305.45 -216.2,-374.32z"/>
     </g>
     <g>
      <path class="fil25" d="M28612.65 22675.32c-0.63,137.13 -97.29,193.18 -217.07,124.18l-1277.46 -737.65c-119.03,-68.63 -215.95,-236.62 -215.82,-373.7 0,-69.44 24,-118.21 63.09,-140.71 38.85,-22.44 93.15,-18.99 152.73,15.15l1277.46 737.71c119.78,69.06 217.07,237.19 217.07,375.02z"/>
     </g>
     <g>
      <path class="fil25" d="M31139.91 24134.72c0,137 -97.03,193.01 -216.45,124.05l-1278.09 -737.9c-118.78,-68.43 -215.81,-236.56 -215.81,-373.5 0,-69.52 24,-118.16 63.35,-140.65 38.96,-22.57 93.14,-19.17 152.46,15.14l1278.09 737.71c119.42,69.01 216.45,237.13 216.45,375.15z"/>
     </g>
     <g>
      <path class="fil25" d="M41287.15 29993.06c0,136.95 -97.16,193 -216.44,123.94l-1277.84 -737.59c-118.91,-68.7 -215.7,-236.63 -215.7,-373.63 0,-69.26 24.02,-118.03 62.98,-140.79 39.35,-22.24 93.26,-19.1 152.72,15.28l1277.84 737.83c119.28,68.89 216.44,237.01 216.44,374.96z"/>
     </g>
     <g>
      <line class="fil26 str9" x1="41408.32" y1="29967.55" x2="41574.75" y2= "30253.69" />
      <line class="fil26 str9" x1="41741.42" y1="30159.86" x2="41574.75" y2= "30253.69" />
     </g>
     <g>
      <line class="fil26 str9" x1="38956.62" y1="28552.01" x2="39123.03" y2= "28838.22" />
      <line class="fil26 str9" x1="39289.46" y1="28744.32" x2="39123.03" y2= "28838.22" />
     </g>
     <g>
      <line class="fil26 str9" x1="31246.87" y1="24100.91" x2="31413.3" y2= "24386.92" />
      <line class="fil26 str9" x1="31579.84" y1="24293.15" x2="31413.3" y2= "24386.92" />
     </g>
     <g>
      <line class="fil26 str9" x1="28702.28" y1="22631.89" x2="28868.7" y2= "22918.03" />
      <line class="fil26 str9" x1="29035.37" y1="22824.2" x2="28868.7" y2= "22918.03" />
     </g>
    </g>
    <g>
     <g>
      <path class="fil25" d="M18864.37 31519.14c0,137.77 -96.53,193.32 -216.07,124.44l-1803.88 -1041.4c-119.53,-68.94 -216.2,-236.3 -216.2,-374.19 0,-137.83 96.67,-193.89 216.2,-124.75l1803.88 1041.33c119.54,68.87 216.07,236.56 216.07,374.57z"/>
     </g>
     <g>
      <path class="fil25" d="M26869.49 36140.63c0.13,137.76 -96.65,193.7 -216.2,124.94l-1804 -1041.65c-118.9,-68.87 -215.94,-236.55 -215.81,-374.07 0,-137.89 96.91,-194.07 215.81,-124.94l1804 1041.4c119.55,68.88 216.33,236.69 216.2,374.32z"/>
     </g>
     <g>
      <path class="fil25" d="M31125.96 38348.37l-1014.88 -585.75 -789.5 -455.91 -1014.36 -585.86c-119.3,-69.14 -216.2,-12.82 -216.2,124.82 0,138.14 96.9,305.3 216.2,374.32l1014.36 585.99 789.5 455.78 1014.88 585.87c119.15,68.75 215.94,12.82 215.94,-124.83 0,-137.87 -96.79,-305.56 -215.94,-374.43z"/>
     </g>
     <g>
      <path class="fil25" d="M21100.64 32810.43c-0.26,137.13 -97.04,193.19 -216.7,124.05l-1277.71 -737.57c-118.78,-68.52 -215.69,-236.57 -215.57,-373.71 0,-69.38 23.76,-118.28 62.98,-140.78 39.22,-22.5 93.52,-18.98 152.59,15.33l1277.71 737.59c119.66,69.01 216.7,237.2 216.7,375.09z"/>
     </g>
     <g>
      <path class="fil25" d="M23628.15 34269.64c0,137.26 -96.91,193.32 -216.57,124.31l-1277.59 -737.96c-118.91,-68.37 -216.07,-236.56 -216.07,-373.7 0,-69.39 24.26,-117.9 63.22,-140.4 39.1,-22.75 93.27,-19.36 152.85,15.09l1277.59 737.7c119.66,68.89 216.57,237.07 216.57,374.96z"/>
     </g>
     <g>
      <path class="fil25" d="M33775.51 40127.97c0,137.14 -96.9,193.07 -216.57,124.07l-1277.82 -737.6c-118.8,-68.5 -215.58,-236.43 -215.58,-373.56 0,-69.52 24.01,-118.16 62.97,-140.79 39.35,-22.5 93.27,-19.1 152.61,15.34l1277.82 737.71c119.67,68.89 216.57,236.94 216.57,374.83z"/>
     </g>
     <g>
      <line class="fil26 str9" x1="33896.44" y1="40102.59" x2="34063.11" y2= "40388.92" />
      <line class="fil26 str9" x1="34229.91" y1="40294.66" x2="34063.11" y2= "40388.92" />
     </g>
     <g>
      <line class="fil26 str9" x1="31444.98" y1="38687.11" x2="31611.41" y2= "38973.21" />
      <line class="fil26 str9" x1="31777.95" y1="38879.31" x2="31611.41" y2= "38973.21" />
     </g>
     <g>
      <line class="fil26 str9" x1="23735.12" y1="34235.96" x2="23901.54" y2= "34522.04" />
      <line class="fil26 str9" x1="24067.96" y1="34428.02" x2="23901.54" y2= "34522.04" />
     </g>
     <g>
      <line class="fil26 str9" x1="21190.64" y1="32766.81" x2="21357.19" y2= "33053.02" />
      <line class="fil26 str9" x1="21523.61" y1="32959.25" x2="21357.19" y2= "33053.02" />
     </g>
    </g>
    <polygon class="fil26 str10" points="38440.5,36038.82 16177.23,23185.33 16177.23,19433.46 38440.5,32286.9 "/>
    <polygon class="fil18 str11" points="38440.5,41874.65 16177.23,29021.11 16177.23,23212.04 38440.5,36065.46 "/>
    <polygon class="fil18 str11" points="38440.5,50394.63 16177.23,37541.14 16177.23,31557.35 38440.5,44410.71 "/>
    <path class="fil27" d="M15661.24 12466.41l-1.64 32986.83 -2821.25 -1628.91 0 -31480.84c0,-832.62 584.24,-1169.99 1305.36,-753.62l1517.53 876.54z"/>
    <g>
     <g>
      <line class="fil28 str12" x1="13447.34" y1="12967.38" x2="14184.93" y2= "13393.3" />
      <line class="fil28 str12" x1="13447.34" y1="13834.69" x2="13940.33" y2= "14119.14" />
      <line class="fil28 str12" x1="13447.34" y1="13379.29" x2="14493.64" y2= "13983.39" />
     </g>
     <polyline class="fil28 str13" points="13447.34,15181.97 13746.51,15354.68 13874.84,14842.33 14182.04,16143.29 14305.1,15717.31 14674.02,15945.64 "/>
     <g>
      <line class="fil28 str14" x1="14421.37" y1="18229.17" x2="14421.37" y2= "18178.89" />
      <path class="fil28 str14" d="M14421.37 18178.89c0,-245.36 -172.21,-543.82 -384.88,-666.56"/>
      <line class="fil28 str14" x1="14036.49" y1="17512.33" x2="13832.23" y2= "17394.36" />
      <path class="fil28 str14" d="M13832.23 17394.36c-212.68,-122.76 -384.89,-23.32 -384.89,222.04"/>
      <line class="fil28 str14" x1="13447.34" y1="17616.4" x2="13447.34" y2= "17666.81" />
      <path class="fil28 str14" d="M14153.26 17164.58c0,139.84 -97.8,196.65 -219.08,126.64 -120.93,-70.02 -219.23,-239.83 -219.23,-379.6 0,-139.65 98.3,-196.6 219.23,-126.58 121.28,69.83 219.08,239.84 219.08,379.54z"/>
     </g>
     <g>
      <path class="fil28 str14" d="M13946.37 19245.49c312.6,180.5 248.62,629.68 248.62,782.27 0.13,152.85 192.32,370.55 192.32,370.55"/>
      <line class="fil28 str14" x1="14387.31" y1="20398.31" x2="13447.34" y2= "19855.31" />
      <path class="fil28 str14" d="M13447.34 19855.31c0,0 192.45,4.71 192.45,-148.14 0,-152.78 -64.35,-675.99 248.5,-495.37"/>
      <line class="fil28 str14" x1="13888.29" y1="19211.8" x2="13946.37" y2= "19245.49" />
      <line class="fil28 str14" x1="14054.46" y1="20246.48" x2="14054.46" y2= "20260.49" />
      <path class="fil28 str14" d="M14054.46 20260.49c0,87.36 -61.09,123.06 -137.14,79.19"/>
      <path class="fil28 str14" d="M13917.32 20339.68c-75.66,-43.75 -137.12,-150.2 -137.12,-237.82"/>
      <line class="fil28 str14" x1="13780.2" y1="20101.86" x2="13780.2" y2= "20087.97" />
      <path class="fil28 str14" d="M13780.2 20087.97c0,-14.15 1.25,-26.71 4.51,-37.96"/>
     </g>
     <g>
      <path class="fil28 str14" d="M14502.7 22038.6c0,0 0,231.09 0,302.29 0,71.16 5.02,139.09 -120.55,66.56"/>
      <line class="fil28 str14" x1="14382.15" y1="22407.45" x2="13982.06" y2= "22176.42" />
      <path class="fil28 str14" d="M13982.06 22176.42c0,0 -5.15,-2.96 -9.3,-5.21"/>
      <line class="fil28 str14" x1="13972.76" y1="22171.21" x2="13572.54" y2= "21940.05" />
      <path class="fil28 str14" d="M13572.54 21940.05c-125.57,-72.53 -120.54,-134.75 -120.54,-205.88 0,-71.03 0,-302.19 0,-302.19"/>
      <line class="fil28 str14" x1="13452" y1="21431.98" x2="13794.52" y2= "21629.7" />
      <path class="fil28 str14" d="M13794.52 21629.7c0,0 6.41,104.47 74.41,200.05 25.52,36.95 60.34,73.29 107.98,102.13 169.06,93.46 183.39,-91.13 183.39,-91.13"/>
      <line class="fil28 str14" x1="14160.3" y1="21840.75" x2="14502.7" y2= "22038.6" />
      <polyline class="fil28 str15" points="14239.48,21379.81 13994.63,21238.54 13960.19,21218.68 13715.33,21077.52 13448.35,21429.91 13804.7,21635.67 "/>
      <path class="fil28 str15" d="M13804.7 21635.67c0,0 6.78,104.58 77.81,201.88"/>
      <polyline class="fil28 str15" points="13882.51,21837.55 13960.19,21909.95 13960.19,21922.39 13977.54,21926.22 13994.63,21942.12 13994.63,21930.05 14072.31,21947.14 "/>
      <path class="fil28 str15" d="M14072.31 21947.14c71.03,-15.32 77.55,-112.17 77.55,-112.17"/>
      <polyline class="fil28 str15" points="14149.86,21834.97 14506.34,22040.8 14239.48,21379.81 "/>
     </g>
     <g>
      <line class="fil28 str14" x1="14678.92" y1="24781.43" x2="13819.03" y2= "24285.3" />
      <path class="fil28 str14" d="M13819.03 24285.3c0,0 6.54,-94.15 61.97,-148.2 24.27,-22.94 56.44,-39.97 101.32,-39.46 126.81,0.74 155.11,-80.58 137.25,-118.99 -2.64,-6.08 -6.67,-11.12 -11.57,-14.19 -2.51,-4.27 -5.15,-7.29 -6.41,-9.49 -16.7,-28.97 -64.35,-115.71 -94.9,-222.3 -14.2,-52.6 -24.37,-109.04 -24.37,-165.16 0,-136.39 66.73,-186.73 152.58,-176.99 35.84,2.84 74.43,16.29 114.26,39.29 38.35,22.19 78.07,54.05 114.13,92.51 87.24,88.87 153.87,216.26 153.87,353.96 0,56.19 -10.44,100.87 -25.52,134.94 -28.29,70.95 -75.92,104.45 -92.51,114"/>
      <line class="fil28 str14" x1="14399.13" y1="24125.22" x2="14397.86" y2= "24126.11" />
      <path class="fil28 str14" d="M14397.86 24126.11c-2.5,-0.13 -5.03,0 -7.66,1.38 0,0 0,0 -1.25,-0.7 -1.52,0.7 -3.91,0.7 -6.41,0.7 -1.39,0.69 -1.39,0.69 -3.03,1.44 -17.72,17.66 10.69,131.85 137.65,277.67 43.6,50.46 75.65,104.52 99.92,155.61 55.43,117.71 61.84,219.22 61.84,219.22"/>
      <path class="fil28 str14" d="M14397.86 24126.11c-2.5,2.88 -5.03,2.95 -5.03,2.95 -1.24,-0.76 -1.24,-0.76 -2.63,-1.57 2.63,-1.38 5.16,-1.51 7.66,-1.38z"/>
      <line class="fil28 str14" x1="15052.24" y1="24813.22" x2="14617.08" y2= "24562.21" />
      <path class="fil28 str14" d="M14617.08 24562.21c-24.27,-51.09 -56.32,-105.15 -99.92,-155.61 -126.96,-145.82 -155.37,-260.01 -137.65,-277.67 1.64,-0.75 1.64,-0.75 3.03,-1.44 2.5,0 4.89,0 6.41,-0.7 1.25,0.7 1.25,0.7 1.25,0.7 2.63,-1.38 5.16,-1.51 7.66,-1.38"/>
      <line class="fil28 str14" x1="14397.86" y1="24126.11" x2="14399.13" y2= "24125.22" />
      <path class="fil28 str14" d="M14399.13 24125.22c87.23,-14.89 107.59,-80.19 92.51,-114 15.08,-34.07 25.52,-78.75 25.52,-134.94 0,-137.7 -66.63,-265.09 -153.87,-353.96 32.07,-122.18 146.2,-126.02 259.06,-60.83 133.62,77.04 266.99,251.95 266.87,445.9 0,194.07 -124.31,252.53 -124.31,252.53 -37.47,-21.44 -23.26,108.22 124.43,277.91 148.69,168.87 162.9,375.39 162.9,375.39"/>
      <path class="fil28 str14" d="M14119.57 23978.65c17.86,38.41 -10.44,119.73 -137.25,118.99 -44.88,-0.51 -77.05,16.52 -101.32,39.46"/>
      <line class="fil28 str14" x1="13881" y1="24137.1" x2="13447.34" y2= "23886.72" />
      <path class="fil28 str14" d="M13447.34 23886.72c0,0 13.96,-190.31 163.03,-187.49 147.44,0.89 161.52,-112.36 124.33,-133.93 0,0 -124.33,-202.36 -124.33,-396.5 0,-193.95 133.12,-214.69 266.6,-137.71 112.76,65.31 225.88,200.11 257.93,359.43 -85.85,-9.74 -152.58,40.6 -152.58,176.99 0,56.12 10.17,112.56 24.37,165.16 -14.32,18.55 7.8,106.78 94.9,222.3 1.26,2.2 3.9,5.22 6.41,9.49 4.03,3.71 7.67,8.85 11.57,14.19"/>
     </g>
     <g>
      <path class="fil28 str14" d="M14542.93 27306.42c0,81.96 -57.45,114.95 -127.97,74.16"/>
      <line class="fil28 str14" x1="14414.96" y1="27380.58" x2="13575.44" y2= "26895.96" />
      <path class="fil28 str14" d="M13575.44 26895.96c-70.78,-40.86 -128.1,-140.34 -128.1,-222.3"/>
      <line class="fil28 str14" x1="13447.34" y1="26673.66" x2="13447.34" y2= "26096.65" />
      <path class="fil28 str14" d="M13447.34 26096.65c0,-81.95 57.32,-114.94 128.1,-74.04"/>
      <line class="fil28 str14" x1="13575.44" y1="26022.61" x2="14414.96" y2= "26507.24" />
      <path class="fil28 str14" d="M14414.96 26507.24c70.52,40.73 127.97,140.21 127.97,222.05"/>
      <line class="fil28 str14" x1="14542.93" y1="26729.29" x2="14542.93" y2= "27306.42" />
      <path class="fil28 str14" d="M14244.01 27133.59c0,81.95 -57.7,115.13 -128.58,74.1"/>
      <line class="fil28 str14" x1="14115.43" y1="27207.69" x2="13874.84" y2= "27068.79" />
      <path class="fil28 str14" d="M13874.84 27068.79c-71.01,-40.92 -128.21,-140.28 -128.21,-222.17"/>
      <line class="fil28 str14" x1="13746.63" y1="26846.62" x2="13746.63" y2= "25973.16" />
      <path class="fil28 str14" d="M13746.63 25973.16c0,-81.84 57.2,-115.08 128.21,-74.16"/>
      <line class="fil28 str14" x1="13874.84" y1="25899" x2="14115.43" y2= "26037.89" />
      <path class="fil28 str14" d="M14115.43 26037.89c70.88,40.92 128.58,140.34 128.58,222.22"/>
      <line class="fil28 str14" x1="14244.01" y1="26260.11" x2="14244.01" y2= "27133.59" />
     </g>
     <g>
      <path class="fil28 str14" d="M14390.58 30186.06c0,81.89 -57.33,115.14 -128.21,74.24"/>
      <line class="fil28 str14" x1="14262.37" y1="30260.3" x2="13575.18" y2= "29863.71" />
      <path class="fil28 str14" d="M13575.18 29863.71c-70.52,-41.16 -127.84,-140.46 -127.84,-222.28"/>
      <line class="fil28 str14" x1="13447.34" y1="29641.43" x2="13447.34" y2= "28863.61" />
      <path class="fil28 str14" d="M13447.34 28863.61c0,-81.82 57.32,-115.02 127.84,-74.03"/>
      <line class="fil28 str14" x1="13575.18" y1="28789.58" x2="14262.37" y2= "29186.09" />
      <path class="fil28 str14" d="M14262.37 29186.09c70.88,40.91 128.33,140.4 128.33,222.35"/>
      <line class="fil28 str14" x1="14390.7" y1="29408.44" x2="14390.58" y2= "30186.06" />
      <line class="fil28 str14" x1="13447.34" y1="29087.36" x2="14379.14" y2= "29625.46" />
      <g>
       <line class="fil28 str16" x1="13707.67" y1="28730.75" x2="13707.67" y2= "29075.67" />
       <line class="fil28 str16" x1="14130.52" y1="28974.91" x2="14130.52" y2= "29319.71" />
      </g>
     </g>
     <g>
      <path class="fil28 str17" d="M13421.46 31507.21c0,0 192.18,110.98 253.65,146.43 61.72,35.7 82.96,908.15 152.85,948.64 70.38,40.59 639.54,369.16 667.7,385.63 28.15,16.22 186.41,-420.21 142.28,-445.72"/>
      <line class="fil28 str17" x1="14637.94" y1="32542.19" x2="13709.67" y2= "32001.57" />
      <path class="fil28 str17" d="M13968.6 33015.43c0,76.43 -53.67,106.85 -119.27,69.02 -66.12,-37.96 -119.54,-130.48 -119.54,-206.52 0,-76.18 53.42,-106.98 119.54,-69.14 65.6,38.09 119.27,130.73 119.27,206.64z"/>
      <path class="fil28 str17" d="M14558.12 33355.96c0,76.04 -53.41,106.96 -119.16,69.13 -65.73,-38.35 -119.27,-130.85 -119.27,-206.78 0,-76.17 53.28,-107.09 119.27,-69 65.75,38.08 119.16,130.72 119.16,206.65z"/>
     </g>
     <g>
      <line class="fil28 str14" x1="14316.92" y1="35198.78" x2="14316.92" y2= "35831.17" />
      <path class="fil28 str14" d="M14316.92 35831.17c0,81.44 -57.58,115.02 -127.96,74.16"/>
      <line class="fil28 str14" x1="14188.96" y1="35905.33" x2="13575.44" y2= "35551.24" />
      <path class="fil28 str14" d="M13575.44 35551.24c-70.52,-40.72 -128.1,-140.77 -128.1,-222.48"/>
      <line class="fil28 str14" x1="13447.34" y1="35328.76" x2="13447.34" y2= "34411.93" />
      <path class="fil28 str14" d="M13447.34 34411.93c0,-81.33 57.58,-114.89 128.1,-74.03"/>
      <line class="fil28 str14" x1="13575.44" y1="34337.9" x2="13952.64" y2= "34555.6" />
      <path class="fil28 str14" d="M13952.64 34555.6c0,0 354.09,650.35 364.28,643.18"/>
      <polyline class="fil28 str14" points="14316.92,35198.78 14316.92,35231.22 13952.64,35020.8 13952.64,34555.6 "/>
      <path class="fil28 str14" d="M13952.64 34555.6c0,0 354.09,650.35 364.28,643.18"/>
     </g>
     <g>
      <path class="fil28 str14" d="M14234.84 37636.04c0,103.45 -72.53,145.68 -162.03,93.77 -89.75,-51.79 -162.4,-177.74 -162.4,-281.19 0,-103.45 72.65,-145.55 162.4,-93.9 89.5,51.8 162.03,177.87 162.03,281.32z"/>
      <line class="fil28 str14" x1="14579.88" y1="37717.23" x2="14492.9" y2= "37666.95" />
      <path class="fil28 str14" d="M14492.9 37666.95c-11.19,-58.19 -28.8,-117.64 -52.67,-175.71"/>
      <line class="fil28 str14" x1="14440.23" y1="37491.24" x2="14502.07" y2= "37455.53" />
      <path class="fil28 str14" d="M14502.07 37455.53c46.13,-26.77 51.91,-103.19 12.82,-170.57 -38.72,-67.87 -108.35,-101.05 -154.24,-74.54"/>
      <line class="fil28 str14" x1="14360.65" y1="37210.42" x2="14298.19" y2= "37246.63" />
      <path class="fil28 str14" d="M14298.19 37246.63c-38.59,-49.14 -80.45,-94.15 -125.32,-132.86"/>
      <line class="fil28 str14" x1="14172.87" y1="37113.77" x2="14172.87" y2= "37012.21" />
      <path class="fil28 str14" d="M14172.87 37012.21c0,-75.41 -44.75,-162.26 -100.06,-194.44 -55.43,-31.81 -100.18,3.51 -100.18,78.81"/>
      <line class="fil28 str14" x1="13972.63" y1="36896.58" x2="13972.63" y2= "36998.52" />
      <path class="fil28 str14" d="M13972.63 36998.52c-45.12,-13.58 -86.98,-17.11 -125.57,-12.32"/>
      <line class="fil28 str14" x1="13847.06" y1="36986.2" x2="13784.84" y2= "36878.09" />
      <path class="fil28 str14" d="M13784.84 36878.09c-46.26,-79.81 -115.26,-126.57 -154.35,-104.07 -39.22,22.75 -33.31,105.84 12.82,185.65"/>
      <line class="fil28 str14" x1="13643.31" y1="36959.67" x2="13705.03" y2= "37066.88" />
      <path class="fil28 str14" d="M13705.03 37066.88c-23.39,30.8 -41.73,68.89 -52.92,115.02"/>
      <line class="fil28 str14" x1="13652.11" y1="37181.9" x2="13565.5" y2= "37131.61" />
      <path class="fil28 str14" d="M13565.5 37131.61c-65.62,-37.83 -118.16,-16.71 -118.16,47.27 -0.11,63.85 52.67,146.06 118.16,183.65"/>
      <line class="fil28 str14" x1="13565.5" y1="37362.53" x2="13651.09" y2= "37412.17" />
      <path class="fil28 str14" d="M13651.09 37412.17c10.7,58.95 28.8,118.92 52.8,177.61"/>
      <line class="fil28 str14" x1="13703.89" y1="37589.78" x2="13643.31" y2= "37624.85" />
      <path class="fil28 str14" d="M13643.31 37624.85c-46,26.52 -52.04,102.95 -12.82,170.19 39.09,68.01 108.09,101.07 154.61,74.67"/>
      <line class="fil28 str14" x1="13785.1" y1="37869.71" x2="13844.8" y2= "37834.89" />
      <path class="fil28 str14" d="M13844.8 37834.89c38.84,50.78 81.83,96.66 127.83,135.75"/>
      <line class="fil28 str14" x1="13972.63" y1="37970.64" x2="13972.63" y2= "38067.94" />
      <path class="fil28 str14" d="M13972.63 38067.94c0,75.28 44.75,162.27 99.94,194.19 55.29,31.93 100.3,-3.52 100.3,-78.81"/>
      <line class="fil28 str14" x1="14172.87" y1="38183.32" x2="14172.87" y2= "38086.03" />
      <path class="fil28 str14" d="M14172.87 38086.03c45.75,13.83 88.74,17.84 127.7,12.07"/>
      <line class="fil28 str14" x1="14300.57" y1="38098.1" x2="14360.65" y2= "38202.04" />
      <path class="fil28 str14" d="M14360.65 38202.04c45.89,79.83 115.4,126.46 154.24,103.96 39.09,-22.75 33.31,-105.84 -12.82,-185.4"/>
      <line class="fil28 str14" x1="14502.07" y1="38120.6" x2="14441.49" y2= "38015.64" />
      <path class="fil28 str14" d="M14441.49 38015.64c24,-31.3 42.1,-70 52.65,-116.9"/>
      <line class="fil28 str14" x1="14494.14" y1="37898.74" x2="14579.88" y2= "37948.14" />
      <path class="fil28 str14" d="M14579.88 37948.14c65.1,37.72 118.27,16.72 118.27,-46.89 0,-63.97 -53.17,-146.31 -118.27,-184.02"/>
     </g>
    </g>
    <path class="fil29" d="M18726.48 34932.57c0,648.08 -455.52,910.54 -1016.51,586.75 -561.36,-324.18 -1016.13,-1112.05 -1016.13,-1760.13 0,-648.23 455.02,-910.8 1016.13,-586.64 561.24,323.81 1016.51,1111.79 1016.51,1760.02z"/>
    <path class="fil29" d="M18726.48 22521.97c0,648.08 -455.52,910.54 -1016.51,586.75 -561.36,-324.18 -1016.13,-1112.05 -1016.13,-1760.13 0,-648.23 455.02,-910.8 1016.13,-586.64 561.24,323.81 1016.51,1111.79 1016.51,1760.02z"/>
    <path class="fil25" d="M29942.52 40742.5c0,130.85 -91.88,184.02 -205.13,118.53l-9827.98 -5673.93c-113.5,-65.49 -205.13,-224.49 -204.88,-355.23 0,-131.09 91.38,-184.01 204.88,-118.64l9827.98 5673.93c113.25,65.36 205.13,224.62 205.13,355.34z"/>
    <path class="fil25" d="M26819.97 40072.55c0,130.09 -91.76,183.51 -206.28,118.9l-6736.7 -3890.06c-97.29,-73.4 -172.2,-213.04 -172.2,-331.58 0,-93.39 46.63,-147.06 112.86,-147.06 28.28,0 59.34,9.81 91.76,28.53l6746.77 3893.95c0,1.63 1.51,1.63 2.77,2.89 91.63,76.05 161.02,210.41 161.02,324.43z"/>
    <path class="fil25" d="M29942.52 28315.45c0,130.85 -91.88,184.02 -205.13,118.53l-9827.98 -5673.94c-113.5,-65.49 -205.13,-224.51 -204.88,-355.23 0,-131.09 91.38,-184.02 204.88,-118.66l9827.98 5673.96c113.25,65.36 205.13,224.61 205.13,355.34z"/>
    <path class="fil25" d="M27502.76 30661.64c0,130.85 -91.89,184.02 -205.15,118.53l-9827.98 -5673.95c-113.49,-65.49 -205.12,-224.49 -204.88,-355.22 0,-131.09 91.39,-184.02 204.88,-118.65l9827.98 5673.95c113.26,65.36 205.15,224.62 205.15,355.34z"/>
    <path class="fil25" d="M26819.97 27645.48c0,130.1 -91.76,183.52 -206.28,118.92l-6736.7 -3890.07c-97.29,-73.4 -172.2,-213.06 -172.2,-331.59 0,-93.39 46.63,-147.05 112.86,-147.05 28.28,0 59.34,9.79 91.76,28.52l6746.77 3893.97c0,1.63 1.51,1.63 2.77,2.88 91.63,76.04 161.02,210.42 161.02,324.42z"/>
    <path class="fil25" d="M21153.18 39267.59c0,64.97 -43.99,94.77 -101.68,64.97 -1.52,0 -4.4,-1.12 -5.79,-2.64l-2074.88 -1198.26c-50.64,-39.72 -88.86,-111.49 -88.86,-173.71 0,-49.4 23.88,-77.43 57.82,-77.43 14.21,0 26.9,4.01 42.36,12.57l2086.18 1203.92c0,0 0,0 1.26,1.38 48.02,39.35 83.59,110.12 83.59,169.2z"/>
    <path class="fil25" d="M26047.19 41757.51c-1.39,-1.64 -1.39,-1.64 -1.39,-1.64l-281.94 -162.52c-0.37,-0.5 -0.75,-0.88 -1.26,-1.27 -1.24,-1.63 -1.24,-1.63 -1.24,-1.63l-2086.08 -1204.05c-15.58,-8.29 -28.4,-12.43 -42.49,-12.43 -33.92,0 -57.81,28.14 -57.81,77.55 0,62.09 38.34,134.12 88.99,173.58l281.82 162.78c0.87,1.01 1.63,2.01 2.76,2.64l2074.62 1198.14c1.52,1.64 4.16,3.02 5.66,3.02 57.95,29.79 101.82,0 101.82,-64.99 0,-59.2 -35.32,-129.72 -83.46,-169.18z"/>
    <g>
     <path class="fil30" d="M17108.26 36582.71c17.6,-37.21 48.9,-33.94 92.52,-8.42 145.94,86.1 292.74,162.77 438.18,256.67 60.83,39.35 90.63,29.67 117.01,-5.28 54.43,-71.9 109.25,-143.67 162.03,-217.83 8.04,-10.94 10.44,-30.8 10.44,-49.4 1,-63.73 -1.39,-129.09 -0.88,-192.82 0,-17.6 2.01,-36.95 9.29,-46.76 29.3,-37.45 77.06,-26.53 128.09,5.41 49.02,30.28 98.16,71.27 120.42,143.91 22.24,71.53 41.47,142.8 60.59,213.82 29.03,107.35 10.92,187.8 -1.77,271.12 -4.4,28.67 -8.92,57.45 -14.19,91.76 27.4,15.84 51.15,29.54 74.91,43.36 92,52.92 183.65,105.97 275.65,158.38 95.9,55.31 122.43,90.37 159.38,211.04 0,22.25 0,44.62 0,67 -13.07,21.87 -26.27,43.49 -38.21,66.49 -3.14,6.92 -4.53,18.85 -2.01,29.29 18.47,72.78 6.04,120.92 -23.38,157.12 -6.03,7.54 -9.55,22.88 -6.79,36.7 14.33,65.62 7.67,115.27 -20.1,147.96 -12.71,14.19 -14.84,31.28 -10.44,58.44 20.73,130.6 -31.05,192.19 -133.62,158.37 -29.16,-9.55 -60.21,-27.14 -90,-44.37 -190.8,-109.35 -381.86,-220.84 -572.29,-329.45 -50.91,-28.91 -98.42,-62.84 -140.78,-122.18 -7.04,-9.68 -16.85,-16.09 -25.89,-24.26 -10.06,81.58 -28.67,89.51 -100.94,47.52 -125.58,-72.4 -251.26,-146.3 -376.72,-216.83 -42.23,-23.5 -72.15,-56.68 -90.5,-111.36 0,-264.84 0,-530.19 0,-795.4zm1039.89 491.72l0 0c8.04,-47.5 16.09,-89.12 22.13,-132.48 8.91,-64.86 28.27,-125.95 20.73,-198.22 -8.79,-84.6 -40.47,-179.25 -64.86,-270 -10.81,-39.72 -51.78,-74.78 -91.26,-86.86 -32.68,-10.05 -46,3.27 -41.22,44.87 18.1,158.64 -8.92,276.16 -86.36,355.22 -72.64,74.92 -124.81,180.76 -243.34,183.77 -7.29,0.26 -12.58,15.08 -12.69,26.9 -0.89,178.1 -0.63,356.72 -0.39,535.46 0,6.54 1.39,14.09 0.89,9.93 34.94,38.34 63.23,71.4 92.38,101.94 21.75,22.88 45.01,49.27 67.38,62.72 212.67,124.31 425.47,246.5 638.03,368.8 16.46,9.55 34.19,16.97 49.53,19.23 35.95,5.02 61.09,-9.04 66.74,-52.03 5.4,-42.12 -13.07,-81.45 -42.74,-111.25 26.4,-18.47 59.83,-28.03 77.05,-56.82 24.14,-40.72 -9.42,-95.14 -44.74,-134.62 27.4,-20.36 61.33,-30.78 78.31,-60.71 24.01,-43.11 -22.5,-99.05 -59.58,-151.08 16.22,1.89 25.14,3.77 34.06,3.89 45.12,1.88 69.89,-40.35 58.83,-100.3 -8.54,-45.76 -36.33,-79.31 -92.65,-111.88 -7.15,-4.02 -14.45,-8.55 -21.61,-12.43 -133.99,-77.44 -267.86,-154.74 -404.62,-234.05zm-559.59 -194.95l0 0c-138.28,-79.82 -273.91,-158 -410.67,-237.06 -0.87,7.03 -2,11.81 -2,17.21 -0.25,235.43 0.25,471.11 -0.76,706.28 -0.38,31.43 13.45,39.98 33.7,51.66 117.14,67 234.29,134.75 351.19,202.25 9.42,5.28 18.35,8.3 28.54,13.08 0,-253.04 0,-503.3 0,-753.42z"/>
    </g>
    <g>
     <line class="fil28 str18" x1="22938.08" y1="39387.37" x2="21829.56" y2= "38747.44" />
     <path class="fil28 str18" d="M21829.56 38747.44c-98.43,-56.81 -177.87,-10.93 -177.87,102.57"/>
     <line class="fil28 str18" x1="21651.69" y1="38850.01" x2="21651.69" y2= "39692.69" />
     <path class="fil28 str18" d="M21651.69 39692.69c0,113.63 79.44,251.52 177.87,308.08"/>
     <polyline class="fil28 str18" points="21829.56,40000.77 22235.93,40235.58 22326.32,40676.89 22492.23,40383.52 22937.95,40640.95 "/>
     <path class="fil28 str18" d="M22937.95 40640.95c98.3,56.55 177.74,10.8 177.74,-102.58"/>
     <line class="fil28 str18" x1="23115.69" y1="40538.37" x2="23115.69" y2= "39695.2" />
     <path class="fil28 str18" d="M23115.69 39695.2c0,-113.37 -79.44,-251.26 -177.61,-307.83"/>
     <path class="fil31" d="M22876.86 39730.64c0,26.53 -18.86,37.22 -41.99,24.01l-902.49 -521.26c-22.88,-13.2 -41.49,-45.5 -41.49,-72.28 0,-26.4 18.61,-37.08 41.49,-24l902.49 521.39c23.13,13.07 41.99,45.63 41.99,72.14z"/>
     <path class="fil31" d="M22876.86 39943.33c0,26.52 -18.86,37.07 -41.99,23.75l-902.49 -520.76c-22.88,-13.45 -41.49,-46.01 -41.49,-72.28 0,-26.77 18.61,-37.58 41.49,-24.13l902.49 521.26c23.13,13.08 41.99,45.39 41.99,72.16z"/>
    </g>
    <path class="fil25" d="M21153.18 30851.44c0,64.87 -43.99,94.78 -101.68,64.87 -1.52,0 -4.4,-1.02 -5.79,-2.52l-2074.88 -1198.33c-50.64,-39.72 -88.86,-111.5 -88.86,-173.71 0,-49.4 23.88,-77.43 57.82,-77.43 14.21,0 26.9,4.02 42.36,12.56l2086.18 1203.93c0,0 0,0 1.26,1.38 48.02,39.35 83.59,110.12 83.59,169.25z"/>
    <path class="fil25" d="M26047.19 33341.24c-1.39,-1.5 -1.39,-1.5 -1.39,-1.5l-281.94 -162.66c-0.37,-0.5 -0.75,-0.76 -1.26,-1.26 -1.24,-1.5 -1.24,-1.5 -1.24,-1.5l-2086.08 -1204.17c-15.58,-8.3 -28.4,-12.33 -42.49,-12.33 -33.92,0 -57.81,28.16 -57.81,77.43 0,62.09 38.34,134.25 88.99,173.71l281.82 162.66c0.87,1 1.63,2.01 2.76,2.77l2074.62 1198.14c1.52,1.5 4.16,3.01 5.66,3.01 57.95,29.67 101.82,0 101.82,-65.12 0,-59.06 -35.32,-129.71 -83.46,-169.18z"/>
    <g>
     <path class="fil30" d="M17108.26 28166.5c17.6,-37.21 48.9,-33.94 92.52,-8.42 145.94,86.1 292.74,162.77 438.18,256.67 60.83,39.35 90.63,29.67 117.01,-5.28 54.43,-71.9 109.25,-143.67 162.03,-217.83 8.04,-10.94 10.44,-30.8 10.44,-49.4 1,-63.73 -1.39,-129.09 -0.88,-192.81 0,-17.61 2.01,-36.97 9.29,-46.77 29.3,-37.45 77.06,-26.52 128.09,5.41 49.02,30.29 98.16,71.27 120.42,143.92 22.24,71.52 41.47,142.79 60.59,213.81 29.03,107.34 10.92,187.78 -1.77,271.12 -4.4,28.67 -8.92,57.45 -14.19,91.77 27.4,15.83 51.15,29.53 74.91,43.36 92,52.91 183.65,105.97 275.65,158.38 95.9,55.31 122.43,90.37 159.38,211.04 0,22.25 0,44.62 0,66.99 -13.07,21.89 -26.27,43.5 -38.21,66.5 -3.14,6.92 -4.53,18.85 -2.01,29.29 18.47,72.78 6.04,120.92 -23.38,157.12 -6.03,7.55 -9.55,22.88 -6.79,36.7 14.33,65.62 7.67,115.26 -20.1,147.95 -12.71,14.2 -14.84,31.3 -10.44,58.46 20.73,130.59 -31.05,192.17 -133.62,158.36 -29.16,-9.55 -60.21,-27.14 -90,-44.36 -190.8,-109.36 -381.86,-220.85 -572.29,-329.46 -50.91,-28.91 -98.42,-62.85 -140.78,-122.17 -7.04,-9.68 -16.85,-16.09 -25.89,-24.27 -10.06,81.58 -28.67,89.5 -100.94,47.52 -125.58,-72.4 -251.26,-146.3 -376.72,-216.83 -42.23,-23.5 -72.15,-56.68 -90.5,-111.36 0,-264.84 0,-530.19 0,-795.41zm1039.89 491.72l0 0c8.04,-47.5 16.09,-89.12 22.13,-132.48 8.91,-64.86 28.27,-125.95 20.73,-198.22 -8.79,-84.6 -40.47,-179.24 -64.86,-270 -10.81,-39.72 -51.78,-74.8 -91.26,-86.86 -32.68,-10.05 -46,3.27 -41.22,44.87 18.1,158.64 -8.92,276.16 -86.36,355.23 -72.64,74.91 -124.81,180.75 -243.34,183.76 -7.29,0.26 -12.58,15.09 -12.69,26.9 -0.89,178.11 -0.63,356.73 -0.39,535.47 0,6.54 1.39,14.07 0.89,9.93 34.94,38.34 63.23,71.4 92.38,101.94 21.75,22.87 45.01,49.27 67.38,62.72 212.67,124.31 425.47,246.5 638.03,368.79 16.46,9.56 34.19,16.98 49.53,19.24 35.95,5.02 61.09,-9.04 66.74,-52.03 5.4,-42.12 -13.07,-81.46 -42.74,-111.25 26.4,-18.47 59.83,-28.04 77.05,-56.82 24.14,-40.72 -9.42,-95.15 -44.74,-134.62 27.4,-20.36 61.33,-30.8 78.31,-60.71 24.01,-43.11 -22.5,-99.05 -59.58,-151.08 16.22,1.87 25.14,3.77 34.06,3.89 45.12,1.88 69.89,-40.35 58.83,-100.3 -8.54,-45.76 -36.33,-79.32 -92.65,-111.88 -7.15,-4.02 -14.45,-8.55 -21.61,-12.43 -133.99,-77.44 -267.86,-154.74 -404.62,-234.06zm-559.59 -194.96l0 0c-138.28,-79.81 -273.91,-157.99 -410.67,-237.06 -0.87,7.04 -2,11.82 -2,17.22 -0.25,235.43 0.25,471.12 -0.76,706.29 -0.38,31.43 13.45,39.98 33.7,51.66 117.14,67 234.29,134.75 351.19,202.25 9.42,5.28 18.35,8.31 28.54,13.08 0,-253.04 0,-503.3 0,-753.44z"/>
    </g>
    <g>
     <line class="fil28 str18" x1="22938.08" y1="30971.1" x2="21829.56" y2= "30331.24" />
     <path class="fil28 str18" d="M21829.56 30331.24c-98.43,-56.81 -177.87,-10.93 -177.87,102.57"/>
     <line class="fil28 str18" x1="21651.69" y1="30433.81" x2="21651.69" y2= "31276.55" />
     <path class="fil28 str18" d="M21651.69 31276.55c0,113.63 79.44,251.39 177.87,307.96"/>
     <polyline class="fil28 str18" points="21829.56,31584.51 22235.93,31819.31 22326.32,32260.76 22492.23,31967.38 22937.95,32224.81 "/>
     <path class="fil28 str18" d="M22937.95 32224.81c98.3,56.55 177.74,10.81 177.74,-102.57"/>
     <line class="fil28 str18" x1="23115.69" y1="32122.24" x2="23115.69" y2= "31279.06" />
     <path class="fil28 str18" d="M23115.69 31279.06c0,-113.37 -79.44,-251.39 -177.61,-307.96"/>
     <path class="fil31" d="M22876.86 31314.51c0,26.4 -18.86,37.21 -41.99,23.88l-902.49 -521.21c-22.88,-13.19 -41.49,-45.49 -41.49,-72.27 0,-26.39 18.61,-37.08 41.49,-24l902.49 521.46c23.13,13.06 41.99,45.49 41.99,72.14z"/>
     <path class="fil31" d="M22876.86 31527.18c0,26.4 -18.86,36.97 -41.99,23.63l-902.49 -520.63c-22.88,-13.58 -41.49,-46 -41.49,-72.4 0,-26.64 18.61,-37.46 41.49,-24.13l902.49 521.39c23.13,13.08 41.99,45.25 41.99,72.14z"/>
    </g>
    <g>
     <polygon class="fil32 str19" points="38440.5,58604.25 16177.23,45750.52 16177.23,39766.85 38440.5,52620.08 "/>
     <path class="fil33" d="M18726.48 43141.92c0,648.23 -455.52,910.68 -1016.51,586.89 -561.36,-324.06 -1016.13,-1112.17 -1016.13,-1760.14 0,-648.08 455.02,-910.8 1016.13,-586.62 561.24,323.79 1016.51,1111.79 1016.51,1759.87z"/>
     <path class="fil25" d="M29942.52 48951.88c0,130.98 -91.88,184.02 -205.13,118.53l-9827.98 -5673.81c-113.5,-65.49 -205.13,-224.51 -204.88,-355.49 0,-130.84 91.38,-183.63 204.88,-118.4l9827.98 5674.07c113.25,65.62 205.13,224.51 205.13,355.1z"/>
     <path class="fil25" d="M26819.97 48282.3c0,129.85 -91.76,183.39 -206.28,118.53l-6736.7 -3889.94c-97.29,-73.27 -172.2,-213.18 -172.2,-331.72 0,-93 46.63,-146.81 112.86,-146.81 28.28,0 59.34,9.94 91.76,28.17l6746.77 3894.45c0,1.13 1.51,1.13 2.77,2.64 91.63,76.43 161.02,210.16 161.02,324.68z"/>
     <path class="fil25" d="M21153.18 47477.34c0,64.73 -43.99,94.4 -101.68,64.73 -1.52,0 -4.4,-1.38 -5.79,-2.64l-2074.88 -1198.4c-50.64,-39.59 -88.86,-111.49 -88.86,-173.71 0,-49.27 23.88,-77.55 57.82,-77.55 14.21,0 26.9,4.27 42.36,12.82l2086.18 1203.68c0,0 0,0 1.26,1.63 48.02,39.59 83.59,109.86 83.59,169.44z"/>
     <path class="fil25" d="M26047.19 49966.89c-1.39,-1.52 -1.39,-1.52 -1.39,-1.52l-281.94 -162.64c-0.37,-0.51 -0.75,-1.01 -1.26,-1.14 -1.24,-1.63 -1.24,-1.63 -1.24,-1.63l-2086.08 -1203.81c-15.58,-8.66 -28.4,-12.82 -42.49,-12.82 -33.92,0 -57.81,28.41 -57.81,77.69 0,62.1 38.34,133.87 88.99,173.59l281.82 162.9c0.87,0.76 1.63,1.63 2.76,2.51l2074.62 1198.14c1.52,1.52 4.16,3.15 5.66,3.15 57.95,29.41 101.82,0 101.82,-64.87 0,-59.45 -35.32,-130.22 -83.46,-169.55z"/>
     <g>
      <path class="fil30" d="M17108.26 44792.45c17.6,-37.58 48.9,-34.31 92.52,-8.8 145.94,86.11 292.74,163.03 438.18,257.31 60.83,38.83 90.63,29.41 117.01,-5.66 54.43,-72.15 109.25,-143.93 162.03,-217.71 8.04,-11.18 10.44,-31.04 10.44,-49.77 1,-63.73 -1.39,-129.09 -0.88,-192.94 0,-17.48 2.01,-36.71 9.29,-46.64 29.3,-37.58 77.06,-26.27 128.09,5.65 49.02,30.3 98.16,71.53 120.42,143.93 22.24,71.4 41.47,142.41 60.59,213.55 29.03,107.73 10.92,187.79 -1.77,271.14 -4.4,28.77 -8.92,57.69 -14.19,91.88 27.4,15.84 51.15,29.54 74.91,43.37 92,52.78 183.65,105.71 275.65,158.37 95.9,55.3 122.43,90.38 159.38,211.18 0,22.11 0,44.73 0,66.99 -13.07,22 -26.27,43.23 -38.21,66.49 -3.14,6.79 -4.53,18.61 -2.01,29.29 18.47,72.4 6.04,120.54 -23.38,156.99 -6.03,7.43 -9.55,22.89 -6.79,36.45 14.33,65.75 7.67,115.78 -20.1,148.07 -12.71,14.34 -14.84,31.31 -10.44,58.58 20.73,130.61 -31.05,192.07 -133.62,158.25 -29.16,-9.42 -60.21,-26.9 -90,-44.36 -190.8,-109.49 -381.86,-220.85 -572.29,-329.2 -50.91,-29.17 -98.42,-62.85 -140.78,-122.43 -7.04,-9.56 -16.85,-15.85 -25.89,-24.14 -10.06,81.45 -28.67,89.37 -100.94,47.77 -125.58,-72.66 -251.26,-146.44 -376.72,-216.83 -42.23,-23.88 -72.15,-57.19 -90.5,-111.62 0,-265.09 0,-530.06 0,-795.16zm1039.89 491.6l0 0c8.04,-47.51 16.09,-89.24 22.13,-132.36 8.91,-65.23 28.27,-125.94 20.73,-198.34 -8.79,-84.72 -40.47,-179.38 -64.86,-270.38 -10.81,-39.59 -51.78,-74.67 -91.26,-86.86 -32.68,-9.92 -46,3.65 -41.22,45.13 18.1,158.63 -8.92,276.53 -86.36,355.34 -72.64,74.54 -124.81,180.51 -243.34,183.65 -7.29,0.37 -12.58,15.08 -12.69,27.01 -0.89,178.12 -0.63,356.62 -0.39,535.24 0,6.78 1.39,14.32 0.89,9.79 34.94,38.72 63.23,71.65 92.38,102.2 21.75,22.87 45.01,49.51 67.38,62.59 212.67,124.57 425.47,246.75 638.03,368.68 16.46,9.79 34.19,17.09 49.53,19.6 35.95,4.9 61.09,-9.18 66.74,-52.17 5.4,-42.23 -13.07,-81.58 -42.74,-111.23 26.4,-18.36 59.83,-28.04 77.05,-56.7 24.14,-40.84 -9.42,-95.28 -44.74,-135 27.4,-19.98 61.33,-30.54 78.31,-60.58 24.01,-42.99 -22.5,-98.92 -59.58,-150.96 16.22,1.88 25.14,3.39 34.06,3.78 45.12,2.13 69.89,-40.49 58.83,-100.2 -8.54,-45.74 -36.33,-79.56 -92.65,-111.73 -7.15,-4.27 -14.45,-8.55 -21.61,-12.71 -133.99,-77.3 -267.86,-154.48 -404.62,-233.79zm-559.59 -195.08l0 0c-138.28,-79.57 -273.91,-158.12 -410.67,-237.06 -0.87,7.16 -2,11.81 -2,17.22 -0.25,235.3 0.25,471.12 -0.76,706.03 -0.38,31.43 13.45,39.98 33.7,51.79 117.14,67.13 234.29,134.87 351.19,202.38 9.42,5.28 18.35,8.42 28.54,12.94 0,-252.9 0,-503.04 0,-753.3z"/>
     </g>
     <g>
      <line class="fil28 str18" x1="22938.08" y1="47596.62" x2="21829.56" y2= "46956.82" />
      <path class="fil28 str18" d="M21829.56 46956.82c-98.43,-56.68 -177.87,-10.68 -177.87,102.57"/>
      <line class="fil28 str18" x1="21651.69" y1="47059.39" x2="21651.69" y2= "47902.7" />
      <path class="fil28 str18" d="M21651.69 47902.7c0,112.99 79.44,250.88 177.87,307.94"/>
      <polyline class="fil28 str18" points="21829.56,48210.64 22235.93,48444.7 22326.32,48886.52 22492.23,48592.77 22937.95,48850.32 "/>
      <path class="fil28 str18" d="M22937.95 48850.32c98.3,56.56 177.74,10.69 177.74,-102.44"/>
      <line class="fil28 str18" x1="23115.69" y1="48747.88" x2="23115.69" y2= "47904.58" />
      <path class="fil28 str18" d="M23115.69 47904.58c0,-113.26 -79.44,-251.02 -177.61,-307.96"/>
      <path class="fil31" d="M22876.86 47940.15c0,26.65 -18.86,37.2 -41.99,23.88l-902.49 -520.89c-22.88,-13.45 -41.49,-45.75 -41.49,-72.4 0,-26.52 18.61,-37.33 41.49,-24.13l902.49 521.39c23.13,13.32 41.99,45.25 41.99,72.15z"/>
      <path class="fil31" d="M22876.86 48152.7c0,26.66 -18.86,37.34 -41.99,23.89l-902.49 -520.89c-22.88,-13.33 -41.49,-45.76 -41.49,-72.03 0,-26.77 18.61,-37.59 41.49,-24.38l902.49 521.14c23.13,13.32 41.99,45.75 41.99,72.27z"/>
     </g>
    </g>
    <g>
     <polygon class="fil14" points="4580.7,57741.23 19259.81,62724.34 13719.61,58207.81 10603.08,58462.34 12438.13,59183.22 6303.5,57405.37 "/>
     <g>
      <path class="fil34" d="M11301.96 57815.64c0,0 1360.67,103.32 2129.79,0 769.78,-104.08 710.45,842.79 -591.27,1079.74 -1301.71,236.93 -2075.87,601.58 -2224.33,108.09 -147.69,-492.73 -221.85,-1196.14 -221.85,-1196.14 0,0 754.43,8.31 907.66,8.31z"/>
      <path class="fil34" d="M5117.93 56534.03c0,0 792.64,201.87 1642.85,115.27 850.35,-86.61 1037.51,576.69 -244.73,821.55 -1282.35,245.23 -2454.98,806.84 -2330.28,-468.6 125.44,-1274.69 831.6,-640.8 932.16,-468.22z"/>
      <path class="fil35" d="M4231.27 37964.23c0,0 505.92,4335.03 -252.65,7333.14 -758.7,2998.25 -280.56,11717.95 508.06,11717.95 1277.33,0 708.05,-3184.02 1183.57,-5676.58 475.13,-2492.44 2426.31,-7738.89 2426.31,-10195.52 0,-2456.48 -613.9,-3860.9 -613.9,-3860.9 0,0 -3251.39,-907.39 -3251.39,681.91z"/>
      <path class="fil36" d="M10588.63 38253.33c0,0 1571.33,2492.7 1300.33,8235.9 -270.49,5743.84 -11.45,12029.17 -785.48,12029.17 -774.04,0 -623.07,-360.62 -1490.01,-3648.34 -866.92,-3287.47 -1264.76,-9753.44 -2239.91,-12064.99 -975.41,-2311.95 -1914.11,-3250.91 -1661.59,-5346.38 252.9,-2095.11 4732.49,35.69 4876.66,794.64z"/>
      <path class="fil6" d="M15790.58 20913.86c0,0 190.19,-523.64 45.5,-939.08 -144.8,-415.62 -296.14,-652.62 -241.96,-1377.44 54.3,-724.71 152.47,-1246.1 296.27,-1198.71 144.04,47.45 232.16,433.52 232.16,433.52 0,0 232.03,-1123.54 277.66,-1300.45 225.75,-873.72 369.68,-904.95 494.38,-873.72 172.57,43.18 -106.22,1013.44 -223.5,1720.23 -57.95,348.93 -67.5,392.85 -67.5,392.85 0,0 74.53,-149.01 291,-149.01 216.7,0 216.7,203.26 216.7,203.26 0,0 54.29,-149.02 237.18,-101.62 182.77,47.37 216.95,318.38 216.95,318.38 0,0 94.53,-108.41 297.65,33.81 203.5,142.3 155.73,839.91 -47.39,1483.28 -203.25,643.64 -575.44,1036.38 -657.02,1530.74 -81.19,494.49 -142.27,487.71 -142.27,487.71l-1225.81 -663.75z"/>
      <path class="fil4" d="M8665.08 25817.79c0,0 2329.93,-54.18 3196.98,568.9 867.06,623.02 2763.45,-379.41 3143.05,-2221.68 379.1,-1842.34 677,-3386.58 677,-3386.58 0,0 849.71,-166.62 1517.67,291.48 668.07,458.17 -524.04,3004.97 -740.74,4431.82 -216.7,1426.71 -2510.67,3458.66 -4488.63,3810.94 -1977.58,352.13 -1237.36,4533.62 -1020.4,7134.54 216.44,2600.91 1183.05,2591.73 1183.05,2591.73 0,0 -6148.54,1117.57 -7559.82,933.9 -1582.69,-205.99 -2039.35,-1285.73 -2039.35,-1285.73 0,0 2386.19,-4684.95 1011.83,-7761.25 -1373.86,-3076.24 1949.55,-4376.82 1949.55,-4376.82l3169.81 -731.25z"/>
      <path class="fil37" d="M8629.52 23497.43c-86.61,21.5 -182.51,30.29 -290.86,30.29 -1555.62,0 -1651.28,-2084.92 -1651.28,-2084.92 0,0 1556,-2492.45 1846.61,-2405.9 0,0 56.19,290.36 138.9,663.23 4.27,21.63 8.28,47.7 13.06,73.66 82.21,359.81 182.01,780.2 277.42,1088.1 186.16,611.08 832.12,2392.75 -333.85,2635.54z"/>
      <path class="fil38" d="M5698.9 30004.12c-2332.17,1924.79 -4429.92,611.14 -5487.84,-1803.24 -56.44,-125.89 -99.68,-247.13 -129.98,-359.93 -73.71,-260.13 -95.21,-485.7 -64.85,-689.26 177.23,-1391.35 2492.62,-1530.17 2986.6,-2336.51 597.94,-975.29 325.18,-1707.92 -242.58,-2735.36 -572.18,-1031.58 -26.4,-2657.22 1057.6,-3740.86 888.3,-888.74 3090.51,-693.65 4074.71,-186.47 216.95,108.42 372.44,234.11 446.1,364.28 117.65,203.69 195.33,455.14 239.07,732.62l4.16 0c164.66,1010.03 -60.85,2358.13 -251.65,2982.28 -394.57,1309.06 177.85,1270.28 645.95,2488.28 468.47,1218.01 -949.38,3359.26 -3277.29,5284.17z"/>
      <path class="fil36" d="M5698.9 30004.12c-2332.17,1924.79 -4429.92,611.14 -5487.84,-1803.24 -56.44,-125.89 -99.68,-247.13 -129.98,-359.93 1440.55,2392.75 2652.27,2034.01 5414.19,171.31 3106.85,-2095.41 2419.66,-2605.81 1409.07,-4787.84 -451.26,-973.77 1673.39,-3975.03 1673.39,-3975.03l4.16 0c164.66,1010.03 -60.85,2358.13 -251.65,2982.28 -394.57,1309.06 177.85,1270.28 645.95,2488.28 468.47,1218.01 -949.38,3359.26 -3277.29,5284.17z"/>
      <path class="fil39" d="M4927.75 21511.93c294.75,2193.66 727.91,5418.78 -2627.3,5930.36 -1044.79,160.33 -1772.95,21.37 -2284.22,-290.6 177.23,-1391.35 2492.62,-1530.17 2986.6,-2336.51 597.94,-975.29 325.18,-1707.92 -242.58,-2735.36 -165.05,-294.82 -234.31,-641.43 -229.78,-1005.5l0 -4.41c17.23,-910.41 515.48,-1959.35 1287.38,-2730.95 793.02,-793.32 2639.88,-723.75 3723.39,-333.66 17.46,8.56 34.69,12.76 47.64,17.35 8.8,0 17.59,4.14 26.02,8.68 99.92,34.68 195.32,77.8 277.66,121.16 0,0 -3264.34,1161.89 -2964.81,3359.44z"/>
      <path class="fil40" d="M7541.24 18005.3c-559.35,-164.85 -4078.98,-1049.05 -5010.77,3064.61 17.23,-910.41 515.48,-1959.35 1287.38,-2730.95 793.02,-793.32 2639.88,-723.75 3723.39,-333.66z"/>
      <path class="fil6" d="M8629.52 23497.43c-256.29,-290.36 -308.09,-598.32 8.55,-1473.79 264.47,-732.62 130.09,-1777.35 47.88,-2249.85 82.21,359.81 182.01,780.2 277.42,1088.1 186.16,611.08 832.12,2392.75 -333.85,2635.54z"/>
     </g>
    </g>
   </g>
  </g>
 </g>
</svg>
